# xmcd CD database file
#
# Track frame offsets:
#	150
#	35688
#	77362
#	102588
#	133617
#
# Disc length: 2464 seconds
#
# Revision: 0
# Processed by: cddbd v1.5.2PL0 Copyright (c) Steve Scherf et al.
# Submitted via: CDex 1.70beta3
#
DISCID=39099e05
DTITLE=Stanley Turrentine - Another Story
DYEAR=1969
DGENRE=Jazz
TTITLE0=Get It
TTITLE1=The Way You Look Tonight
TTITLE2=Stella By Starlight
TTITLE3=Quittin' Time
TTITLE4=Six And Four
EXTD=YEAR: 1969
EXTT0=
EXTT1=
EXTT2=
EXTT3=
EXTT4=
PLAYORDER=
